<?xml version="1.0" standalone="no"?><!DOCTYPE svg PUBLIC "-//W3C//DTD SVG 1.1//EN" "http://www.w3.org/Graphics/SVG/1.1/DTD/svg11.dtd"><svg t="1510367770140" class="icon" style="" viewBox="0 0 1024 1024" version="1.1" xmlns="http://www.w3.org/2000/svg" p-id="6452" xmlns:xlink="http://www.w3.org/1999/xlink" width="200" height="200"><defs><style type="text/css"></style></defs><path d="M511.634 254.562 348.501 580.827 674.792 580.827Z" p-id="6453" fill="#f4ea2a"></path><path d="M512 12.19C236.398 12.19 12.19 236.398 12.19 512S236.398 1011.81 512 1011.81 1011.81 787.602 1011.81 512 787.602 12.19 512 12.19zM317.879 587.581l182.857-365.714c4.145-8.265 17.676-8.265 21.821 0l182.857 365.714c1.877 3.779 1.682 8.265-0.512 11.849-2.267 3.584-6.193 5.778-10.411 5.778L328.777 605.208c-4.218 0-8.143-2.194-10.362-5.778C316.197 595.846 315.977 591.36 317.879 587.581zM707.438 690.542 316.587 690.542c-6.729 0-12.19-5.461-12.19-12.19 0-6.729 5.461-12.19 12.19-12.19l390.851 0c6.729 0 12.19 5.461 12.19 12.19C719.628 685.08 714.167 690.542 707.438 690.542z" p-id="6454" fill="#f4ea2a"></path></svg>